<svg xmlns="http://www.w3.org/2000/svg" width="272" height="317" viewBox="0 0 272 317" version="1.1">
  <g id="surface1">
    <path style="stroke: none; fillRule: nonzero; fill: rgb(100%,100%,100%); fillOpacity: 1;" d="M 54.882812 114.90625 C 54.886719 114.921875 54.894531 114.941406 54.898438 114.960938 C 54.894531 114.941406 54.890625 114.921875 54.882812 114.90625 Z M 166.566406 96.097656 C 168.160156 95.941406 169.8125 95.902344 171.523438 96 C 178.195312 96.410156 183.652344 98.902344 188.035156 100.902344 C 190.238281 101.910156 192.144531 102.78125 193.777344 103.234375 C 197.585938 104.273438 202.148438 103.234375 205.117188 100.632812 C 208.089844 98.03125 209.714844 93.65625 209.164062 89.75 C 208.144531 82.507812 213.21875 75.792969 220.46875 74.777344 C 223.003906 74.421875 225.453125 74.808594 227.625 75.757812 C 226.894531 73.21875 225.816406 70.78125 224.410156 68.546875 C 222.804688 65.996094 221.027344 64.117188 219.273438 63.117188 C 215.113281 60.746094 212.820312 60.320312 210.253906 60.382812 C 205.675781 60.492188 200.59375 61.355469 195.882812 62.738281 C 198.398438 64.390625 200.269531 66.828125 201.214844 69.730469 C 202.304688 73.101562 202.015625 76.695312 200.402344 79.847656 C 198.785156 83.003906 196.039062 85.335938 192.660156 86.425781 C 178.460938 91.007812 162.222656 90.480469 143.015625 84.800781 C 136.699219 82.933594 130.589844 80.714844 124.683594 78.5625 C 117.574219 75.980469 110.304688 73.335938 103.25 71.546875 C 99.125 70.5 95.210938 69.804688 91.535156 69.453125 C 96.273438 71.917969 99.253906 77.085938 98.644531 82.644531 C 98.433594 84.710938 97.085938 103.144531 114.597656 108.832031 C 123.503906 111.136719 133.316406 110.167969 141.558594 106.171875 C 143.0625 105.441406 144.667969 104.558594 146.363281 103.617188 C 151.894531 100.566406 158.558594 96.890625 166.566406 96.097656 Z M 60.136719 100.105469 C 66.632812 99.46875 72.792969 103.703125 74.355469 110.207031 C 75.132812 113.253906 78.199219 121.976562 87.847656 123.359375 C 73.464844 109.9375 71.039062 90.203125 72.230469 79.726562 C 72.617188 76.226562 74.359375 73.074219 77.132812 70.859375 C 77.625 70.46875 78.136719 70.113281 78.664062 69.800781 C 75.707031 70.308594 72.96875 71.140625 70.453125 72.292969 C 62.3125 76.023438 56.742188 83.089844 53.5 88.363281 C 50.207031 93.71875 46.492188 101.855469 47.480469 110.207031 C 47.609375 111.304688 47.835938 112.390625 48.152344 113.460938 C 48.078125 107.398438 52.210938 101.863281 58.363281 100.402344 C 58.953125 100.261719 59.546875 100.164062 60.136719 100.105469 Z M 76.949219 151.269531 C 73.839844 151.578125 70.738281 151.566406 67.667969 151.234375 C 47.160156 149.015625 29.925781 132.382812 27.578125 112.546875 C 25.921875 98.507812 31.46875 85.964844 36.417969 77.910156 C 41.113281 70.273438 49.375 59.953125 62.089844 54.121094 C 74.800781 48.296875 90.3125 47.640625 108.183594 52.171875 C 116.214844 54.207031 123.96875 57.027344 131.46875 59.757812 C 134.625 60.902344 137.8125 62.0625 141.007812 63.160156 L 151.046875 60.765625 C 153.667969 60.136719 155.984375 59.421875 157.757812 58.691406 C 163.6875 56.230469 167.738281 53.988281 172.027344 51.621094 C 173.996094 50.535156 175.921875 49.472656 178.015625 48.386719 C 187.15625 43.648438 199.023438 40.664062 209.761719 40.398438 C 216.507812 40.230469 222.328125 41.832031 229.207031 45.753906 C 233.882812 48.417969 237.980469 52.511719 241.378906 57.917969 C 249.425781 70.710938 251.066406 87.421875 245.652344 101.53125 C 240.226562 115.683594 225.40625 126.683594 213.121094 131.308594 L 203.03125 135.105469 L 199.976562 124.789062 C 199.847656 124.359375 199.714844 123.9375 199.566406 123.519531 C 195.859375 123.824219 192.089844 123.5 188.457031 122.503906 C 185.257812 121.621094 182.433594 120.332031 179.699219 119.085938 C 176.234375 117.5 173.242188 116.136719 170.3125 115.953125 C 165.871094 115.695312 161.332031 118.207031 156.066406 121.109375 C 154.21875 122.132812 152.300781 123.191406 150.320312 124.152344 C 139.1875 129.546875 126.171875 131.296875 113.9375 129.132812 C 112.757812 130.859375 111.476562 132.515625 110.09375 134.085938 L 125.21875 136.796875 L 87.246094 149.097656 C 83.820312 150.207031 80.378906 150.933594 76.949219 151.269531 Z M 76.949219 151.269531 " />
    <path style="stroke: none; fillRule: nonzero; fill: rgb(100%,100%,100%); fillOpacity: 1;" d="M 165.234375 123.703125 C 168.40625 123.671875 171.65625 123.800781 174.988281 124.117188 C 172.996094 123.234375 171.210938 122.546875 169.941406 122.46875 C 168.667969 122.394531 167.054688 122.898438 165.234375 123.703125 Z M 116.875 136.167969 C 116.484375 136.660156 116.082031 137.144531 115.671875 137.628906 C 116.445312 137.183594 117.246094 136.742188 118.070312 136.296875 C 117.671875 136.257812 117.273438 136.214844 116.875 136.167969 Z M 111.691406 164.863281 L 107.421875 164.328125 C 104.574219 163.980469 101.875 162.867188 99.394531 161.03125 C 96.914062 159.195312 94.8125 156.707031 93.125 153.636719 C 90.589844 149.019531 89.578125 143.640625 90.113281 137.65625 L 90.511719 133.203125 L 94.101562 130.535156 C 98.0625 127.585938 101.3125 124.066406 103.765625 120.066406 L 107.496094 113.976562 L 114.480469 115.523438 C 124.402344 117.722656 135.3125 116.453125 144.414062 112.039062 C 146.070312 111.238281 147.820312 110.269531 149.519531 109.335938 C 155.730469 105.902344 162.761719 102.023438 171.132812 102.511719 C 176.5625 102.839844 181.214844 104.960938 185.316406 106.839844 C 187.675781 107.914062 189.898438 108.929688 192.03125 109.515625 C 194.558594 110.210938 197.273438 110.320312 200.101562 109.847656 L 207.621094 108.582031 L 210.84375 115.480469 C 213.203125 120.515625 214.550781 126.460938 214.289062 130.625 C 214.179688 132.285156 212.988281 146.933594 204.097656 150.308594 L 200.53125 151.660156 L 196.457031 150.097656 C 154.707031 132.253906 121.292969 156.996094 115.015625 162.136719 Z M 111.691406 164.863281 " />
    <path style="stroke: none; fillRule: nonzero; fill: rgb(15.686275%,42.352942%,22.352941%); fillOpacity: 1;" d="M 201.257812 218.667969 C 200.339844 215.546875 198.40625 212.546875 195.785156 210.710938 C 194.636719 209.914062 193.066406 211.082031 193.492188 212.410156 C 194.25 214.796875 194.03125 217.53125 192.84375 219.761719 C 191.003906 223.203125 187.171875 225.355469 183.269531 225.636719 C 181.125 225.792969 178.957031 225.394531 176.976562 224.558594 C 177.078125 224.441406 177.179688 224.332031 177.273438 224.210938 C 179.875 220.863281 181.007812 216.703125 180.472656 212.503906 C 180.1875 210.273438 179.453125 208.175781 178.289062 206.269531 C 177.351562 204.734375 175.34375 204.242188 173.796875 205.175781 C 172.253906 206.117188 171.769531 208.121094 172.703125 209.660156 C 173.386719 210.78125 173.816406 212.015625 173.988281 213.332031 C 174.304688 215.800781 173.632812 218.246094 172.101562 220.214844 C 170.578125 222.1875 168.371094 223.445312 165.894531 223.757812 C 163.421875 224.074219 160.96875 223.40625 158.992188 221.878906 C 157.019531 220.355469 155.757812 218.15625 155.445312 215.683594 C 155.285156 214.433594 155.375 213.191406 155.710938 211.992188 C 156.199219 210.257812 155.1875 208.460938 153.449219 207.96875 C 151.71875 207.488281 149.90625 208.496094 149.417969 210.226562 C 148.84375 212.273438 148.6875 214.382812 148.960938 216.503906 C 149.488281 220.652344 151.585938 224.34375 154.867188 226.933594 C 153.042969 228.5 150.835938 229.625 148.464844 230.058594 C 144.617188 230.761719 140.367188 229.632812 137.722656 226.757812 C 136.011719 224.898438 135.109375 222.308594 135.246094 219.808594 C 135.324219 218.414062 133.511719 217.671875 132.601562 218.734375 C 130.523438 221.164062 129.410156 224.554688 129.300781 227.808594 C 129.191406 231.316406 130.03125 234.851562 131.714844 237.9375 C 135.070312 244.078125 141.800781 248.15625 148.792969 248.601562 C 155.785156 249.046875 162.851562 245.964844 167.515625 240.746094 C 173.335938 244.632812 180.949219 245.855469 187.609375 243.671875 C 194.265625 241.492188 199.757812 235.863281 201.460938 229.082031 C 202.320312 225.675781 202.246094 222.042969 201.257812 218.667969 Z M 201.257812 218.667969 " />
    <path style="stroke: none; fillRule: nonzero; fill: rgb(15.686275%,42.352942%,22.352941%); fillOpacity: 1;" d="M 209.585938 121.957031 C 209.175781 120.582031 208.683594 119.210938 208.113281 117.890625 C 210.976562 116.707031 213.679688 115.113281 216.039062 113.046875 C 223.246094 106.734375 226.898438 96.925781 225.558594 87.445312 C 225.308594 85.664062 223.65625 84.425781 221.867188 84.675781 C 220.078125 84.925781 218.832031 86.574219 219.082031 88.359375 C 220.101562 95.570312 217.214844 103.339844 211.726562 108.148438 C 206.238281 112.953125 198.152344 114.792969 191.109375 112.867188 C 188.703125 112.199219 186.351562 111.128906 183.867188 109.992188 C 179.851562 108.160156 175.703125 106.273438 170.929688 105.976562 C 163.566406 105.546875 157.289062 109.011719 151.214844 112.363281 C 149.398438 113.367188 147.679688 114.320312 145.9375 115.164062 C 135.46875 120.238281 123.042969 121.417969 111.792969 118.433594 C 85.9375 110.265625 88.558594 82.742188 88.683594 81.5625 C 88.878906 79.777344 87.632812 78.183594 85.792969 77.96875 C 84 77.769531 82.386719 79.058594 82.1875 80.851562 C 82.148438 81.175781 79.085938 111.921875 105.859375 123.207031 C 103.355469 126.957031 100.234375 130.246094 96.707031 132.964844 C 71.089844 137.636719 64.882812 113.617188 64.617188 112.539062 C 64.195312 110.789062 62.4375 109.710938 60.683594 110.125 C 58.925781 110.542969 57.839844 112.300781 58.257812 114.054688 C 58.320312 114.320312 63.761719 135.933594 84.152344 139.589844 C 79.164062 141.203125 73.921875 141.851562 68.742188 141.296875 C 53.019531 139.589844 39.316406 126.460938 37.527344 111.375 C 36.203125 100.183594 40.839844 89.84375 44.960938 83.136719 C 48.925781 76.683594 55.84375 67.988281 66.273438 63.207031 C 76.847656 58.359375 90.117188 57.902344 105.714844 61.859375 C 113.253906 63.769531 120.773438 66.503906 128.039062 69.144531 C 133.828125 71.25 139.8125 73.433594 145.863281 75.21875 C 163.0625 80.304688 177.359375 80.863281 189.574219 76.917969 C 191.292969 76.359375 192.238281 74.523438 191.683594 72.808594 C 191.125 71.09375 189.277344 70.152344 187.566406 70.710938 C 177.972656 73.804688 166.742188 73.734375 153.375 70.488281 C 156.398438 69.765625 159.253906 68.890625 161.597656 67.917969 C 168.042969 65.246094 172.539062 62.765625 176.878906 60.367188 C 178.738281 59.339844 180.601562 58.3125 182.636719 57.257812 C 190.367188 53.246094 200.855469 50.613281 210.007812 50.390625 C 214.863281 50.269531 218.984375 51.441406 224.238281 54.433594 C 227.464844 56.273438 230.378906 59.234375 232.894531 63.230469 C 239.304688 73.417969 240.605469 86.722656 236.296875 97.957031 C 232.226562 108.570312 220.085938 118.003906 209.585938 121.957031 Z M 216.886719 205.632812 C 219.773438 212.484375 219.460938 222.242188 213.28125 227.628906 C 212.753906 228.089844 212.199219 228.511719 211.640625 228.933594 C 210.558594 229.765625 209.335938 230.699219 208.261719 231.890625 C 206.019531 234.386719 204.925781 237.449219 203.960938 240.152344 C 203.617188 241.109375 203.277344 242.070312 202.882812 242.996094 C 199.816406 250.207031 193.527344 254.914062 188.796875 257.589844 C 185.25 259.59375 181.152344 261.320312 175.90625 263.027344 C 171.144531 264.570312 166.191406 265.199219 161.1875 264.894531 C 155.679688 264.558594 151.28125 263.910156 147.34375 262.855469 C 142.089844 261.445312 134.820312 258.460938 130.039062 252.246094 C 129.429688 251.449219 128.859375 250.605469 128.289062 249.761719 C 126.671875 247.386719 124.84375 244.695312 122.042969 242.839844 C 120.707031 241.953125 119.285156 241.347656 118.027344 240.816406 C 117.382812 240.550781 116.738281 240.28125 116.121094 239.96875 C 108.78125 236.296875 106.03125 226.929688 107.105469 219.574219 C 108.152344 212.386719 112.183594 205.058594 119.4375 197.1875 L 121.152344 195.316406 L 119.765625 193.195312 C 113.554688 183.710938 111.222656 172.019531 112.90625 159.347656 C 118.863281 154.339844 152.824219 128.402344 196.691406 146.453125 C 201.203125 157.863281 201.761719 172.144531 198.007812 183.261719 L 197.195312 185.664062 L 199.332031 187.039062 C 208.324219 192.851562 214.070312 198.933594 216.886719 205.632812 Z M 100.089844 138.546875 C 104.914062 134.957031 109.121094 130.484375 112.308594 125.28125 C 124.460938 127.976562 137.617188 126.453125 148.792969 121.03125 C 150.691406 120.109375 152.566406 119.074219 154.382812 118.074219 C 159.878906 115.035156 165.074219 112.167969 170.542969 112.492188 C 174.09375 112.703125 177.515625 114.269531 181.144531 115.925781 C 183.757812 117.117188 186.457031 118.351562 189.363281 119.152344 C 193.429688 120.269531 197.667969 120.394531 201.765625 119.703125 C 203.511719 123.4375 204.433594 127.6875 204.289062 129.984375 C 203.945312 135.289062 201.703125 140.523438 200.542969 140.964844 C 200.519531 140.957031 200.503906 140.949219 200.484375 140.941406 C 200.472656 140.9375 200.460938 140.933594 200.449219 140.929688 C 153.226562 120.71875 115.386719 148.902344 108.65625 154.410156 C 107.511719 154.269531 106.398438 153.773438 105.355469 153 C 104.0625 152.039062 102.902344 150.636719 101.910156 148.835938 C 100.304688 145.910156 99.738281 142.519531 100.089844 138.546875 Z M 242.40625 100.285156 C 247.433594 87.179688 245.910156 71.652344 238.433594 59.765625 C 235.339844 54.847656 231.652344 51.148438 227.476562 48.769531 C 221.1875 45.1875 215.914062 43.71875 209.847656 43.871094 C 199.761719 44.117188 188.183594 47.03125 179.625 51.464844 C 177.535156 52.550781 175.625 53.609375 173.714844 54.660156 C 169.335938 57.078125 165.199219 59.363281 159.089844 61.894531 C 153.625 64.160156 144.679688 65.898438 138.433594 65.941406 C 135.6875 64.984375 132.960938 63.992188 130.277344 63.019531 C 122.855469 60.320312 115.183594 57.53125 107.324219 55.535156 C 90.246094 51.210938 75.511719 51.792969 63.542969 57.28125 C 54.105469 61.605469 45.753906 69.367188 39.390625 79.726562 C 34.726562 87.308594 29.492188 99.09375 31.039062 112.140625 C 33.109375 129.65625 48.582031 144.964844 66.597656 147.597656 C 67.078125 147.667969 67.558594 147.730469 68.042969 147.785156 C 76.75 148.71875 85.632812 146.796875 93.492188 142.703125 C 93.742188 146.070312 94.625 149.136719 96.175781 151.964844 C 97.457031 154.300781 99.015625 156.199219 100.785156 157.671875 C 100.800781 157.964844 100.730469 158.289062 100.539062 158.496094 C 100.300781 158.753906 99.871094 158.863281 99.527344 158.832031 C 98.851562 158.695312 97.996094 157.921875 97.089844 157.101562 C 95.710938 155.855469 93.996094 154.304688 91.550781 153.816406 C 87.339844 153 82.917969 155.945312 81.714844 160.457031 C 80.640625 164.480469 82.152344 168.261719 83.609375 170.726562 C 85.53125 173.972656 88.269531 176.6875 91.539062 178.574219 L 92.078125 178.878906 C 92.304688 179.003906 92.527344 179.128906 92.742188 179.265625 C 92.292969 179.347656 91.738281 179.378906 91.164062 179.414062 L 90.578125 179.449219 C 89.015625 179.554688 87 179.84375 85.304688 181.136719 C 82.925781 182.941406 81.898438 186.292969 82.738281 189.464844 C 83.457031 192.164062 85.257812 194.152344 86.550781 195.410156 C 90.742188 199.503906 96.734375 202.222656 102.949219 203.128906 C 104.105469 203.296875 105.273438 203.382812 106.4375 203.421875 C 103.300781 208.535156 101.371094 213.570312 100.632812 218.632812 C 98.964844 230.09375 104.121094 241.265625 113.1875 245.800781 C 113.933594 246.171875 114.707031 246.5 115.480469 246.828125 C 116.566406 247.285156 117.597656 247.722656 118.425781 248.273438 C 120.152344 249.417969 121.472656 251.363281 122.875 253.421875 C 123.515625 254.371094 124.164062 255.320312 124.855469 256.214844 C 130.746094 263.882812 139.414062 267.484375 145.648438 269.15625 C 147.886719 269.753906 150.242188 270.234375 152.804688 270.605469 C 155.246094 270.964844 157.882812 271.226562 160.785156 271.40625 C 166.613281 271.761719 172.378906 271.027344 177.925781 269.230469 C 183.605469 267.386719 188.082031 265.492188 192.019531 263.265625 C 197.632812 260.089844 205.121094 254.441406 208.902344 245.542969 C 209.347656 244.5 209.734375 243.425781 210.117188 242.34375 C 210.953125 240 211.746094 237.785156 213.132812 236.242188 C 213.796875 235.507812 214.679688 234.828125 215.617188 234.113281 C 216.285156 233.601562 216.949219 233.09375 217.582031 232.542969 C 225.214844 225.886719 227.410156 213.785156 222.914062 203.109375 C 220.792969 198.0625 217.34375 193.390625 212.542969 188.96875 C 220.277344 187.144531 228.246094 183.015625 231.910156 176.957031 C 232.847656 175.410156 234.089844 173.039062 234.109375 170.242188 C 234.128906 166.960938 232.292969 163.980469 229.535156 162.820312 C 227.5625 161.996094 225.546875 162.21875 224.003906 162.507812 L 223.425781 162.621094 C 222.859375 162.730469 222.316406 162.835938 221.859375 162.871094 C 222.027344 162.699219 222.21875 162.515625 222.410156 162.328125 L 222.851562 161.902344 C 225.546875 159.253906 227.519531 155.941406 228.5625 152.320312 C 229.355469 149.570312 229.871094 145.527344 227.820312 141.902344 C 225.527344 137.84375 220.503906 136.058594 216.628906 137.9375 C 214.382812 139.019531 213.117188 140.949219 212.09375 142.5 C 211.421875 143.519531 210.789062 144.480469 210.167969 144.777344 C 209.871094 144.925781 208.851562 145.214844 208.128906 144.671875 C 207.660156 144.320312 207.558594 144.058594 207.726562 142.457031 C 207.746094 142.289062 207.75 142.160156 207.761719 142.003906 C 209.835938 137.957031 210.660156 132.753906 210.808594 130.402344 C 210.847656 129.796875 210.839844 129.144531 210.800781 128.464844 C 222.839844 124.253906 237.355469 113.449219 242.40625 100.285156 Z M 242.40625 100.285156 " />
  </g>
</svg>